<?xml version="1.0" encoding="utf-8"?>
<!-- Generator: Adobe Illustrator 16.0.0, SVG Export Plug-In . SVG Version: 6.00 Build 0)  -->
<!DOCTYPE svg PUBLIC "-//W3C//DTD SVG 1.1//EN" "http://www.w3.org/Graphics/SVG/1.1/DTD/svg11.dtd">
<svg version="1.1" id="Layer_1" xmlns="http://www.w3.org/2000/svg" xmlns:xlink="http://www.w3.org/1999/xlink" x="0px" y="0px"
	 width="2048px" height="2048px" viewBox="0 0 2048 2048" enable-background="new 0 0 2048 2048" xml:space="preserve">
<path fill-rule="evenodd" clip-rule="evenodd" fill="#FFFFFF" d="M410.115,1215.62"/>
<path fill-rule="evenodd" clip-rule="evenodd" fill="#FFFFFF" d="M410.115,1208.809"/>
<linearGradient id="SVGID_1_" gradientUnits="userSpaceOnUse" x1="1012.7988" y1="2465.8564" x2="1030.7236" y2="867.2018">
	<stop  offset="0.0099" style="stop-color:#F8EB32"/>
	<stop  offset="0.5172" style="stop-color:#F69321"/>
	<stop  offset="1" style="stop-color:#EB2227"/>
</linearGradient>
<path fill-rule="evenodd" clip-rule="evenodd" fill="url(#SVGID_1_)" d="M1682.205,1194.542
	c-37.072,47.814-48.66,59.599-89.719,98.198c-32.803,30.816-64.568,54.921-102.107,69.717
	c-7.867-7.543,102.547-626.082-138.365-780.92c115.936,294.017-7.652,391.673-117.936,516.697
	c80.904-197.55,3.295-342.517-148.818-461.959C914.796,502.423,803.554,342.722,824.237,117.838
	c-22.257,43.216-56.955,126.998-55.408,168.143c4.92,131.318,39.685,220.429,40.045,351.606
	c0.133,60.292-20.936,167.699-48.394,172.563c-102.254,18.133-124.003-67.813-137.965-145.989
	c-0.32-1.684-70.437,175.247-42.886,369.08c4.267,30.02,6.081,98.358-8.948,157.341c-21.403,84.058-63.234,158.731-63.234,158.731
	s-92.945-107.063-148.354-151.472c-109.145,254.798-82.149,635.327,129.274,816.312c346.491,1.387,692.981-1.332,1039.473-2.682
	C1712.119,1873.508,1833.083,1584.687,1682.205,1194.542z"/>
<radialGradient id="SVGID_2_" cx="-22.6411" cy="2411.6807" r="2429.7231" gradientTransform="matrix(0.2316 -0.9728 0.6975 0.166 -1699.4481 1989.235)" gradientUnits="userSpaceOnUse">
	<stop  offset="0.0099" style="stop-color:#F8EB32"/>
	<stop  offset="0.5172" style="stop-color:#F69321"/>
	<stop  offset="1" style="stop-color:#EB2227"/>
</radialGradient>
<path fill-rule="evenodd" clip-rule="evenodd" fill="url(#SVGID_2_)" d="M1642.479,1894.528
	c112.145-157.387,157.543-398.545,40.967-699.986c-37.072,47.814-48.66,59.599-89.732,98.198
	c-32.791,30.816-64.555,54.921-102.098,69.717c-7.863-7.543,102.543-626.082-138.375-780.92
	c115.941,294.017-7.641,391.673-117.922,516.697c80.891-197.55,3.295-342.517-148.826-461.959
	C916.035,502.423,804.781,342.722,825.471,117.838c-22.25,43.216-58.822,81.078-58.822,181.798
	c0,160.448,43.093,206.774,43.459,337.952c0.139,60.292-20.937,167.699-48.386,172.563
	c-102.26,18.133-124.017-67.813-137.966-145.989c-0.04-0.177-0.866,1.7-2.227,5.234c1.106,322.213,204.773,157.777,306.334,593.035
	c0,0,6.567-61.005,29.304-117.775c21.396-53.438,60.308-96.722,60.308-96.722c-8.961,124.053,86.485,282.206,93.311,318.618
	c23.863,127.25-70.189,227.56-84.203,245.793c-209.625,272.761,91.057,253.599,70.419,401.122
	c147.284-0.66,294.567-1.474,441.852-2.034C1587.073,1972.086,1615.762,1932.025,1642.479,1894.528z"/>
<path fill="#391714" d="M1379.459,1901.524c6.467-10.107,12.594-20.403,18.234-31.11c18.156-34.513,31.264-71.397,39.293-109.349
	l95.492-25.47v-123.101l-95.227-25.403c-10.588-50.38-30.369-97.818-57.768-140.485l54.674-94.526l-87.051-87.024l-94.572,54.747
	c-10.088-6.468-20.363-12.628-31.045-18.281c-34.125-17.964-69.982-30.928-106.662-38.98l-28.115-105.359H963.602l-28.15,105.494
	c-11.654,2.586-23.336,5.541-34.912,9.155c-36.844,11.379-71.349,27.596-102.973,47.839l-94.4-54.614l-87.011,87.022l54.688,94.507
	c-6.428,10.09-12.575,20.438-18.203,31.146c-17.309,32.818-30.018,67.89-38.15,103.881l-115.75,30.884v123.101l115.636,30.857
	c10.828,48.339,30.063,93.959,56.467,135.071l-54.714,94.479l18.511,18.51c261.182,0.252,522.364-1.382,783.546-2.573l15.95-15.955
	L1379.459,1901.524z M1285.805,1811.432c-36.617,69.517-98.26,120.629-173.516,143.98c-75.291,23.257-154.994,15.946-224.531-20.682
	c-97.04-51.128-157.348-151.155-157.348-260.949c0.007-48.11,11.469-94.243,34.058-137.135
	c36.699-69.594,98.301-120.779,173.491-144.067c75.197-23.282,154.942-15.928,224.571,20.808
	c97.072,51.109,157.334,151.132,157.334,260.957C1319.863,1721.758,1308.115,1769.134,1285.805,1811.432z"/>
<path fill="#FFFFFF" d="M2048,2008.041H0V2048h398.831c0.607-10.928,4.5-20.629,14.169-26c9-5,22-8,34-9c-12,1-25,4-34,9
	c-9.668,5.371-13.562,15.072-14.169,26h36.761c-4.708-8.238-9.007-16.876-14.592-25c5.585,8.124,9.884,16.762,14.592,25h1181.123
	c0.361-7.095-2.248-13.791-10.715-15c-30-4-58-13-88-13c-366-2-732-1-1098-1c366,0,732-1,1098,1c30,0,58,9,88,13
	c8.467,1.209,11.076,7.905,10.715,15h73.109c-2.349-13.69-5.75-26.926-15.824-37c-408,1-816,5-1224,3c408,2,816-2,1224-3
	c10.074,10.074,13.476,23.31,15.824,37H2048V2008.041z"/>
<g>
</g>
<g>
</g>
<g>
</g>
<g>
</g>
<g>
</g>
<g>
</g>
</svg>
