<?xml version="1.0" encoding="utf-8"?>
<!-- Generator: Adobe Illustrator 16.0.0, SVG Export Plug-In . SVG Version: 6.00 Build 0)  -->
<!DOCTYPE svg PUBLIC "-//W3C//DTD SVG 1.1//EN" "http://www.w3.org/Graphics/SVG/1.1/DTD/svg11.dtd">
<svg version="1.1" id="Layer_1" xmlns="http://www.w3.org/2000/svg" xmlns:xlink="http://www.w3.org/1999/xlink" x="0px" y="0px"
	 width="2048px" height="2048px" viewBox="0 0 2048 2048" enable-background="new 0 0 2048 2048" xml:space="preserve">
<path fill-rule="evenodd" clip-rule="evenodd" fill="#FFFFFF" d="M410.115,1215.62"/>
<path fill-rule="evenodd" clip-rule="evenodd" fill="#FFFFFF" d="M410.115,1208.809"/>
<linearGradient id="SVGID_1_" gradientUnits="userSpaceOnUse" x1="1013.1787" y1="2471.3379" x2="1031.1301" y2="870.3088">
	<stop  offset="0.0099" style="stop-color:#F8EB32"/>
	<stop  offset="0.5172" style="stop-color:#F69321"/>
	<stop  offset="1" style="stop-color:#EB2227"/>
</linearGradient>
<path fill-rule="evenodd" clip-rule="evenodd" fill="url(#SVGID_1_)" d="M1683.104,1197.355
	c-37.086,47.85-48.683,59.643-89.786,98.271c-32.816,30.841-64.604,54.963-102.185,69.769
	c-7.86-7.547,102.624-626.554-138.47-781.509c116.023,294.239-7.647,391.97-118.025,517.087
	c80.966-197.7,3.31-342.776-148.933-462.309c-170.592-133.953-281.918-293.775-261.22-518.829
	c-22.26,43.249-56.984,127.093-55.449,168.27c4.938,131.417,39.716,220.597,40.075,351.874
	c0.134,60.337-20.952,167.826-48.417,172.693c-102.344,18.146-124.11-67.863-138.083-146.1
	c-0.308-1.685-70.489,175.379-42.918,369.359c4.27,30.043,6.085,98.435-8.941,157.461c-21.433,84.121-63.297,158.851-63.297,158.851
	s-93.017-107.142-148.466-151.584c-109.512,255.649-82.053,637.779,131.031,818.329c342.659-0.104,685.319-0.86,1027.978,1.012
	c1.209,0,2.409,0.037,3.611,0.065C1709.955,1884.119,1836.018,1592.725,1683.104,1197.355z"/>
<radialGradient id="SVGID_2_" cx="-23.0347" cy="2419.9697" r="2431.8015" gradientTransform="matrix(0.2316 -0.9728 0.6975 0.166 -1705.5317 1995.7649)" gradientUnits="userSpaceOnUse">
	<stop  offset="0.0099" style="stop-color:#F8EB32"/>
	<stop  offset="0.5172" style="stop-color:#F69321"/>
	<stop  offset="1" style="stop-color:#EB2227"/>
</radialGradient>
<path fill-rule="evenodd" clip-rule="evenodd" fill="url(#SVGID_2_)" d="M1643.362,1897.873
	c112.221-157.504,157.647-398.849,40.984-700.518c-37.094,47.85-48.697,59.643-89.787,98.271
	c-32.823,30.841-64.617,54.963-102.185,69.769c-7.867-7.547,102.625-626.554-138.471-781.509
	c116.023,294.239-7.653,391.97-118.025,517.087c80.966-197.7,3.305-342.776-148.932-462.309
	c-170.592-133.953-281.918-293.775-261.22-518.829c-22.267,43.249-58.866,81.139-58.866,181.936
	c0,160.57,43.132,206.931,43.492,338.208c0.133,60.337-20.952,167.826-48.416,172.693c-102.345,18.146-124.111-67.863-138.083-146.1
	c-0.027-0.177-0.854,1.701-2.229,5.238c1.114,322.458,204.942,157.897,306.579,593.486c0,0,6.566-61.051,29.319-117.865
	c21.419-53.477,60.361-96.796,60.361-96.796c-8.981,124.147,86.544,282.422,93.377,318.861
	c23.874,127.346-70.251,227.732-84.27,245.979c-210.674,274.134,93.712,253.621,70.198,403.324
	c140.27,0.11,280.539,0.435,420.809,1.201c4.845,0,9.633,0.254,14.39,0.664C1585.077,1979.436,1615.311,1937.242,1643.362,1897.873z
	"/>
<g>
	<path fill-rule="evenodd" clip-rule="evenodd" fill="#391714" d="M1068.51,1345.888c-0.128-54.476-31.253-94.944-86.123-94.904
		c-47.659,0.036-81.802,38.781-78.779,91.371C905.73,1379.248,935,1406.532,941,1446.23v572.523c32-0.004,64-0.004,96,0.009V1446.23
		C1042,1418.906,1068.539,1356.755,1068.51,1345.888z"/>
	<path fill-rule="evenodd" clip-rule="evenodd" fill="#391714" d="M1311.57,1845.369c-0.125-54.476-30.768-94.944-85.636-94.903
		c-47.659,0.035-82.29,38.781-79.269,91.37c2.078,36.162,33.334,71.99,39.334,110.783v66.282c32,0.048,64,0.113,96,0.191v-64.128
		C1288,1927.64,1311.598,1856.236,1311.57,1845.369z"/>
	<path fill-rule="evenodd" clip-rule="evenodd" fill="#391714" d="M836.523,1671.441c-0.13-54.476-30.914-94.944-85.783-94.905
		c-47.659,0.037-81.645,38.785-78.622,91.376c2.122,36.889,29.881,73.428,36.881,113.123v237.83c31.667-0.021,63.333-0.042,95-0.061
		v-237.77C809,1753.712,836.549,1682.308,836.523,1671.441z"/>
</g>
<path fill="#FFFFFF" d="M2048,2008.041H0V2048h435.592c-4.708-8.238-9.007-16.876-14.592-25c5.585,8.124,9.884,16.762,14.592,25
	h1181.123c0.361-7.095-2.248-13.791-10.715-15c-30-4-58-13-88-13c-366-2-732-1-1098-1c366,0,732-1,1098,1c30,0,58,9,88,13
	c8.467,1.209,11.076,7.905,10.715,15H2048V2008.041z"/>
<g>
</g>
<g>
</g>
<g>
</g>
<g>
</g>
<g>
</g>
<g>
</g>
</svg>
