<?xml version="1.0" encoding="utf-8"?>
<!-- Generator: Adobe Illustrator 23.0.3, SVG Export Plug-In . SVG Version: 6.00 Build 0)  -->
<svg version="1.1" id="Layer_1" xmlns="http://www.w3.org/2000/svg" xmlns:xlink="http://www.w3.org/1999/xlink" x="0px" y="0px"
	 viewBox="0 0 2048 2048" style="enable-background:new 0 0 2048 2048;" xml:space="preserve">
<style type="text/css">
	.st0{fill-rule:evenodd;clip-rule:evenodd;fill:url(#SVGID_1_);}
	.st1{fill-rule:evenodd;clip-rule:evenodd;fill:#FFFFFF;}
	.st2{fill-rule:evenodd;clip-rule:evenodd;fill:url(#SVGID_2_);}
	.st3{fill-rule:evenodd;clip-rule:evenodd;fill:#391714;}
</style>
<linearGradient id="SVGID_1_" gradientUnits="userSpaceOnUse" x1="1013.9167" y1="2457.8708" x2="1031.7648" y2="866.0729">
	<stop  offset="9.852219e-03" style="stop-color:#F8EB32"/>
	<stop  offset="0.5172" style="stop-color:#F69321"/>
	<stop  offset="1" style="stop-color:#EB2227"/>
</linearGradient>
<path class="st0" d="M485.91,2008.04H1529.6c182.86-138.2,302.26-425.77,152.2-813.77c-36.98,47.71-48.54,59.46-89.52,97.99
	c-32.72,30.75-64.42,54.79-101.88,69.56c-7.84-7.53,102.32-624.71-138.06-779.21c115.68,293.37-7.62,390.82-117.68,515.57
	c80.73-197.12,3.3-341.77-148.5-460.95c-170.09-133.56-281.09-292.91-260.45-517.3c-22.2,43.12-56.82,126.72-55.29,167.77
	c4.92,131.03,39.6,219.95,39.96,350.84c0.13,60.16-20.89,167.33-48.27,172.19c-102.04,18.09-123.75-67.66-137.68-145.67
	c-0.31-1.68-70.28,174.86-42.79,368.27c4.26,29.96,6.07,98.14-8.91,157c-21.37,83.88-63.11,158.38-63.11,158.38
	s-92.74-106.82-148.03-151.14C253.48,1449.91,279.23,1825.88,485.91,2008.04z"/>
<path class="st1" d="M410.11,1215.62"/>
<path class="st1" d="M410.11,1208.81"/>
<radialGradient id="SVGID_2_" cx="-19.3211" cy="2404.6768" r="2424.2061" gradientTransform="matrix(0.2316 -0.9728 0.6975 0.166 -1692.0121 1986.6238)" gradientUnits="userSpaceOnUse">
	<stop  offset="9.852219e-03" style="stop-color:#F8EB32"/>
	<stop  offset="0.5172" style="stop-color:#F69321"/>
	<stop  offset="1" style="stop-color:#EB2227"/>
</radialGradient>
<path class="st2" d="M929.12,1262.01c0,0,6.55-60.87,29.23-117.52c21.36-53.32,60.18-96.51,60.18-96.51
	c-8.95,123.78,86.29,281.59,93.1,317.92c23.8,126.97-70.04,227.07-84.02,245.25c-207.56,270.07,86.28,253.32,70.68,396.88h442.07
	c47.14-38.83,75.44-78.33,101.8-115.32c111.89-157.04,157.18-397.67,40.86-698.46c-36.98,47.71-48.55,59.46-89.52,97.99
	c-32.73,30.75-64.43,54.79-101.88,69.56c-7.84-7.53,102.32-624.71-138.06-779.21c115.68,293.37-7.63,390.82-117.68,515.57
	c80.73-197.12,3.29-341.77-148.49-460.95C917.3,503.66,806.31,344.31,826.94,119.92c-22.2,43.12-58.69,80.9-58.69,181.4
	c0,160.1,43,206.32,43.36,337.21c0.13,60.16-20.89,167.33-48.27,172.19C661.3,828.81,639.6,743.05,625.66,665.05
	c-0.03-0.18-0.85,1.7-2.22,5.22C624.55,991.78,827.78,827.7,929.12,1262.01z"/>
<polygon class="st3" points="381.02,1881.97 390.07,1897.81 403.93,1920 620,1920 620,1947 676,1947 676,1920 744.01,1920 
	794.26,1920 818.74,1901.72 827.16,1872.67 826,1831.92 826,1593 853,1593 853,1539 826,1539 826,1458 1179,1458 1179,1539 
	1160,1539 1160,1593 1179,1593 1179,1661.6 1185.05,1700.78 1198.71,1731.06 1225.16,1749 1275.4,1749 1323,1749 1323,1776 
	1379,1776 1379,1749 1718.24,1749 1723.6,1732.67 1730.08,1709.84 1735.75,1686.03 1739.4,1668 1379,1668 1379,1641 1323,1641 
	1323,1668 1268,1668 1268,1593 1296,1593 1296,1539 1268,1539 1268,1450.41 1269.57,1411.24 1259.71,1386.95 1237.08,1375 
	1186.83,1375 832.58,1375 782.34,1375 757.85,1386.95 742.14,1412.82 736,1450.41 736,1539 718,1539 718,1593 736,1593 736,1839 
	676,1839 676,1812 620,1812 620,1839 359.91,1839 370.17,1861.01 "/>
</svg>
